:version 1.10
:name ASF
:units
  mass 1
  length 1
  angle deg
:documentation
  ASF file generated by Kaydara
:root
  axis xyz
  order  tx ty tz rx ry rz
  position 0 0 0
  orientation 0 0 0
:bonedata
  begin
    id 1
    name LeftUpLegDummy
    direction 1 -2.30186e-007 -8.31532e-007
    length 2.93387
    axis 0 0 0 xyz
  end
  begin
    id 2
    name LeftUpLeg
    direction -1.82929e-007 -1 -1.48925e-009
    length 17.3336
    axis -3.48766 0.00143442 -0.000521554 xyz
    dof rx ry rz
  end
  begin
    id 3
    name LeftLeg
    direction -1.82929e-007 -1 -5.23717e-011
    length 14.9995
    axis 3.68178 -0.00654042 -0.000282425 xyz
    dof rx ry rz
  end
  begin
    id 4
    name LeftFoot
    direction 8.31532e-007 -4.54534e-011 1
    length 6.74421
    axis 1.87234e-006 4.66016e-005 -5.96866e-006 xyz
    dof rx ry rz
  end
  begin
    id 5
    name LeftToes
    direction 0.00818058 -0.00485161 0.999955
    length 3.85048
    axis 1.06247e-005 4.65869e-005 -5.96999e-006 xyz
    dof rx ry rz
  end
  begin
    id 6
    name SpineDummy
    direction -5.8607e-008 0.943407 -0.331637
    length 5.93572
    axis 0 0 0 xyz
  end
  begin
    id 7
    name Spine
    direction -1.04988e-007 0.999988 0.00495137
    length 10.1015
    axis -0.001389 0.000121417 6.61666e-006 xyz
    dof rx ry rz
  end
  begin
    id 8
    name Spine1
    direction 0 0 0
    length 0
    axis -0.001389 0.00012144 6.56766e-006 xyz
    dof rx ry rz
  end
  begin
    id 9
    name RightShoulderDummy
    direction -0.98348 0.17941 -0.0240696
    length 3.59882
    axis -0.001389 0.00012144 6.56766e-006 xyz
  end
  begin
    id 10
    name RightShoulder
    direction -0.978693 0.204882 0.0135597
    length 2.70001
    axis 0.215806 0.000203631 -0.00679732 xyz
    dof rx ry rz
  end
  begin
    id 11
    name RightArm
    direction -1 3.85509e-006 8.31394e-007
    length 10.2459
    axis -23.2009 -0.134239 -0.964098 xyz
    dof rx ry rz
  end
  begin
    id 12
    name RightForeArm
    direction -1 3.85569e-006 8.3129e-007
    length 8.16799
    axis -9.92322 0.0658061 0.17887 xyz
    dof rx ry rz
  end
  begin
    id 13
    name RightHand
    direction -0.992843 -0.0414604 0.112003
    length 5.28593
    axis -0.00960638 0.00330669 -0.185225 xyz
    dof rx ry rz
  end
  begin
    id 14
    name LeftShoulder1Dummy
    direction 0.983523 0.179172 -0.0240748
    length 3.59866
    axis -0.001389 0.00012144 6.56766e-006 xyz
  end
  begin
    id 15
    name LeftShoulder1
    direction 0.978627 0.205195 0.0135605
    length 2.70019
    axis -0.001389 0.00012144 6.57583e-006 xyz
    dof rx ry rz
  end
  begin
    id 16
    name LeftArm
    direction 1 3.51895e-006 -8.60188e-007
    length 10.2459
    axis -23.1894 0.134785 0.967513 xyz
    dof rx ry rz
  end
  begin
    id 17
    name LeftForeArm
    direction 1 3.51921e-006 -7.32029e-007
    length 8.16799
    axis -9.91835 -0.0656957 -0.177789 xyz
    dof rx ry rz
  end
  begin
    id 18
    name LeftHand
    direction 0.992938 -0.0411636 0.11126
    length 5.32135
    axis -0.00960237 -0.00340661 0.185177 xyz
    dof rx ry rz
  end
  begin
    id 19
    name HEadDummy
    direction 1.01974e-006 0.999861 -0.016675
    length 2.99946
    axis -0.001389 0.00012144 6.56766e-006 xyz
  end
  begin
    id 20
    name HEad
    direction -0.0222689 0.980941 0.193023
    length 5.12695
    axis -0.001389 0.00012144 6.56766e-006 xyz
    dof rx ry rz
  end
  begin
    id 21
    name RightUpLegDummy
    direction -1 2.30186e-007 8.31532e-007
    length 2.93387
    axis 0 0 0 xyz
  end
  begin
    id 22
    name RightUpLeg
    direction -1.82966e-007 -1 1.56832e-007
    length 17.3336
    axis -3.4909 -0.000906625 0.00028951 xyz
    dof rx ry rz
  end
  begin
    id 23
    name RightLeg
    direction -1.82786e-007 -1 -1.80317e-007
    length 14.9995
    axis 3.68513 0.0193739 -0.131021 xyz
    dof rx ry rz
  end
  begin
    id 24
    name RightFoot
    direction 8.31721e-007 -4.63324e-011 1
    length 6.74421
    axis 4.81691e-005 -0.120479 -0.188785 xyz
    dof rx ry rz
  end
  begin
    id 25
    name RightToes
    direction 0.00124746 -0.014064 0.9999
    length 3.85082
    axis 0.000481921 0.542163 -0.142575 xyz
    dof rx ry rz
  end
:hierarchy
  begin
    root LeftUpLegDummy SpineDummy RightUpLegDummy
    LeftUpLegDummy LeftUpLeg
    LeftUpLeg LeftLeg
    LeftLeg LeftFoot
    LeftFoot LeftToes
    SpineDummy Spine
    Spine Spine1
    Spine1 RightShoulderDummy LeftShoulder1Dummy HEadDummy
    RightShoulderDummy RightShoulder
    RightShoulder RightArm
    RightArm RightForeArm
    RightForeArm RightHand
    LeftShoulder1Dummy LeftShoulder1
    LeftShoulder1 LeftArm
    LeftArm LeftForeArm
    LeftForeArm LeftHand
    HEadDummy HEad
    RightUpLegDummy RightUpLeg
    RightUpLeg RightLeg
    RightLeg RightFoot
    RightFoot RightToes
  end

:SAMPLES-PER-SECOND 30
:FULLY-SPECIFIED
:DEGREES
165
root  41.5778 34.9407 54.1544 -168.764 48.8867 -177.62
LeftUpLeg  -12.0105 -10.1119 12.7088
LeftLeg  10.7097 -22.8994 -2.74751
LeftFoot  3.134 0.037548 -1.36043
LeftToes  -34.1368 2.48695e-006 -1.03773e-007
Spine  3.51966 2.31623 2.28781
Spine1  7.032 4.66673 4.38978
RightShoulder  0.0711308 6.52548 6.40665
RightArm  -37.229 -8.31492 65.6811
RightForeArm  21.8594 20.2431 3.72422
RightHand  0.474665 -6.17856 -8.39888
LeftShoulder1  0.00460142 2.37579 -9.2014
LeftArm  -13.0827 15.1295 -74.1512
LeftForeArm  34.5625 -16.9061 -3.06168
LeftHand  0.0302736 2.35185 1.10155
HEad  6.56813 32.8684 -0.922467
RightUpLeg  -10.7214 -11.9843 0.664539
RightLeg  9.01335 9.35071 0.871326
RightFoot  1.23091 0.00178 0.211724
RightToes  -27.1525 -0.124813 -0.231697
166
root  41.8019 34.9304 54.3952 -168.926 47.6916 -177.477
LeftUpLeg  -12.2648 -10.0731 13.3591
LeftLeg  11.1344 -23.2498 -2.95713
LeftFoot  3.42731 0.0469955 -1.50919
LeftToes  -35.3876 2.48695e-006 -1.03773e-007
Spine  3.48769 2.10256 2.33878
Spine1  6.96365 4.22089 4.51681
RightShoulder  0.0708026 6.3816 6.57292
RightArm  -36.3394 -8.61859 67.5636
RightForeArm  22.9251 19.6788 3.61138
RightHand  0.451707 -6.12463 -8.04959
LeftShoulder1  0.00493821 2.08094 -9.11011
LeftArm  -14.1394 12.6929 -72.9422
LeftForeArm  36.3001 -13.8894 -2.48874
LeftHand  0.0544695 3.36764 1.47975
HEad  6.48411 32.7182 -0.995328
RightUpLeg  -10.3859 -11.9614 1.36048
RightLeg  9.13978 8.19474 0.782569
RightFoot  0.798936 0.00175115 0.126275
RightToes  -26.0086 -0.117424 -0.22329
167
root  42.0153 34.913 54.6303 -169.155 46.5769 -177.258
LeftUpLeg  -12.42 -10.1691 14.0372
LeftLeg  11.5846 -23.5612 -3.17716
LeftFoot  3.63132 0.0544428 -1.6208
LeftToes  -36.576 2.48695e-006 -1.03773e-007
Spine  3.49586 1.91872 2.38645
Spine1  6.97659 3.82718 4.64847
RightShoulder  0.0709352 6.24607 6.73374
RightArm  -35.3856 -9.08836 69.3943
RightForeArm  23.9992 19.0916 3.49476
RightHand  0.424387 -5.96478 -7.75354
LeftShoulder1  0.00534017 1.89817 -8.88644
LeftArm  -16.8025 10.319 -72.2314
LeftForeArm  37.9206 -11.6338 -2.07028
LeftHand  0.133318 3.88775 3.55022
HEad  6.5953 32.5106 -0.911209
RightUpLeg  -10.0982 -12.7326 2.09251
RightLeg  9.55363 7.92166 0.81424
RightFoot  0.262073 0.000749073 0.0498824
RightToes  -24.9827 -0.110941 -0.215627
168
root  42.2149 34.8973 54.867 -169.201 45.6604 -176.871
LeftUpLeg  -12.4928 -10.09 14.7747
LeftLeg  11.7816 -23.6783 -3.27246
LeftFoot  3.85818 0.062152 -1.72994
LeftToes  -37.5264 2.48695e-006 -1.03773e-007
Spine  3.50463 1.80949 2.44574
Spine1  6.99294 3.58587 4.79617
RightShoulder  0.0714494 6.1262 6.92133
RightArm  -33.9606 -9.66509 71.0025
RightForeArm  25.0303 18.5349 3.38491
RightHand  0.392773 -5.94631 -7.17355
LeftShoulder1  0.00580249 1.79437 -8.6403
LeftArm  -20.3783 8.17446 -71.8382
LeftForeArm  39.0128 -10.4795 -1.85864
LeftHand  0.246206 4.32531 6.13292
HEad  6.67288 32.3387 -0.889051
RightUpLeg  -9.85109 -13.2275 2.92612
RightLeg  9.78225 7.56192 0.807898
RightFoot  -0.0961816 -0.000315801 0.00131368
RightToes  -23.9942 -0.104825 -0.208135
169
root  42.3944 34.8767 55.1027 -169.19 44.9968 -176.566
LeftUpLeg  -12.4767 -9.76456 15.3111
LeftLeg  11.6797 -23.1563 -3.16376
LeftFoot  4.12329 0.0679238 -1.80192
LeftToes  -37.9949 2.48695e-006 -1.03773e-007
Spine  3.50643 1.7653 2.45163
Spine1  6.99271 3.48376 4.82906
RightShoulder  0.0735586 6.11365 7.27729
RightArm  -32.2745 -10.2896 72.2189
RightForeArm  26.3473 18.0204 3.28387
RightHand  0.326804 -5.70358 -6.17621
LeftShoulder1  0.00632037 1.80653 -8.62549
LeftArm  -22.5296 6.46741 -71.3579
LeftForeArm  37.8586 -10.7969 -1.91755
LeftHand  0.334739 4.48136 8.15678
HEad  6.76093 32.2963 -0.870703
RightUpLeg  -9.69594 -12.9417 3.67742
RightLeg  9.83656 6.64518 0.716833
RightFoot  -0.407215 -0.00145977 -0.0332872
RightToes  -22.9236 -0.098349 -0.199903
170
root  42.5327 34.8403 55.3384 -169.28 44.5578 -176.35
LeftUpLeg  -12.4124 -9.18245 15.5945
LeftLeg  11.6979 -22.1149 -3.03605
LeftFoot  4.26695 0.0677908 -1.77457
LeftToes  -38.1708 2.48695e-006 -1.03773e-007
Spine  3.56612 1.77284 2.44132
Spine1  7.10366 3.50131 4.79987
RightShoulder  0.0837125 6.26302 7.80072
RightArm  -32.4751 -10.6079 72.6753
RightForeArm  27.1142 17.5315 3.18853
RightHand  0.0844595 -5.19728 -1.48888
LeftShoulder1  0.00688898 1.81217 -8.78813
LeftArm  -22.895 5.22014 -70.8801
LeftForeArm  35.1324 -12.6206 -2.25433
LeftHand  0.339736 4.32409 8.59687
HEad  6.832 32.2764 -0.95433
RightUpLeg  -9.85035 -13.038 4.31327
RightLeg  10.489 6.35025 0.758223
RightFoot  -0.941197 -0.00384386 -0.0904993
RightToes  -22.1736 -0.0939043 -0.194065
171
root  42.6322 34.8002 55.5648 -169.409 44.0846 -176.22
LeftUpLeg  -12.3991 -8.7107 15.6985
LeftLeg  11.7541 -20.4858 -2.84291
LeftFoot  4.28841 0.0615874 -1.64482
LeftToes  -37.4031 2.48695e-006 -1.03773e-007
Spine  3.63242 1.73037 2.4339
Spine1  7.22131 3.42867 4.75729
RightShoulder  0.0927305 6.22282 7.98223
RightArm  -33.0796 -10.3697 72.393
RightForeArm  27.1917 17.1729 3.11912
RightHand  -0.137065 -5.57254 3.18201
LeftShoulder1  0.00750354 1.83822 -8.92808
LeftArm  -21.8422 4.3864 -70.654
LeftForeArm  32.3652 -15.3628 -2.76888
LeftHand  0.303721 4.17645 7.93197
HEad  6.85112 32.4665 -1.21927
RightUpLeg  -10.0657 -13.4475 4.84454
RightLeg  11.1403 6.32294 0.827751
RightFoot  -1.50153 -0.00694926 -0.152831
RightToes  -21.3961 -0.0893772 -0.187951
172
root  42.7112 34.7681 55.7783 -169.348 43.293 -176.006
LeftUpLeg  -12.4562 -8.38834 15.8855
LeftLeg  11.3742 -18.955 -2.51344
LeftFoot  4.55603 0.0639128 -1.60657
LeftToes  -37.0053 2.48695e-006 -1.03773e-007
Spine  3.62245 1.58644 2.4928
Spine1  7.18918 3.13725 4.863
RightShoulder  0.0939156 6.00152 7.78915
RightArm  -32.4007 -10.268 71.8388
RightForeArm  27.0289 17.3201 3.14763
RightHand  -0.120828 -6.14388 2.61836
LeftShoulder1  0.00815922 1.91505 -9.1003
LeftArm  -19.7966 3.75339 -70.7411
LeftForeArm  30.7712 -18.1288 -3.30132
LeftHand  0.248085 3.70309 7.27927
HEad  6.70234 32.5701 -1.6796
RightUpLeg  -10.1586 -13.8242 5.46438
RightLeg  11.1906 5.95927 0.785664
RightFoot  -1.78796 -0.00862096 -0.174995
RightToes  -20.8262 -0.086112 -0.183431
173
root  42.7752 34.7526 55.9862 -169.19 42.3185 -176.043
LeftUpLeg  -12.7985 -7.56861 15.8662
LeftLeg  10.8118 -17.7888 -2.18972
LeftFoot  5.17706 0.0769638 -1.70228
LeftToes  -36.4123 2.48695e-006 -1.03773e-007
Spine  3.53178 1.42231 2.50472
Spine1  6.99241 2.80525 4.88139
RightShoulder  0.0919869 5.95104 7.60045
RightArm  -31.7595 -10.415 71.0949
RightForeArm  27.3781 17.4787 3.17818
RightHand  0.0633158 -6.26383 -0.786283
LeftShoulder1  0.00885123 1.85792 -9.07989
LeftArm  -17.465 3.24565 -71.2676
LeftForeArm  30.3662 -20.4777 -3.76674
LeftHand  0.216195 3.26296 7.19416
HEad  6.05328 32.4287 -2.24237
RightUpLeg  -10.3773 -14.2474 5.971
RightLeg  10.8387 5.48109 0.68875
RightFoot  -1.82436 -0.00828271 -0.165705
RightToes  -20.3277 -0.0833529 -0.179452
